<?xml version="1.0" encoding="UTF-8"?>
<svg width="698px" height="698px" viewBox="0 0 698 698" version="1.1" xmlns="http://www.w3.org/2000/svg" xmlns:xlink="http://www.w3.org/1999/xlink">
    <!-- Generator: Sketch 61.2 (89653) - https://sketch.com -->
    <title>Group 2</title>
    <desc>Created with Sketch.</desc>
    <defs>
        <linearGradient x1="50%" y1="100%" x2="50%" y2="0%" id="linearGradient-1">
            <stop stop-color="#808080" stop-opacity="0.25" offset="0%"></stop>
            <stop stop-color="#808080" stop-opacity="0.12" offset="54%"></stop>
            <stop stop-color="#808080" stop-opacity="0.1" offset="100%"></stop>
        </linearGradient>
    </defs>
    <g id="Page-1" stroke="none" stroke-width="1" fill="none" fill-rule="evenodd">
        <g id="Group-2" fill-rule="nonzero">
            <circle id="Oval" fill="url(#linearGradient-1)" cx="349" cy="349" r="349"></circle>
            <g id="icon-avatar-transport-profesionnal" transform="translate(9.000000, 9.000000)">
                <circle id="Oval" fill="#252C40" cx="340" cy="340" r="340"></circle>
                <g id="Group" transform="translate(232.000000, 16.000000)">
                    <polygon id="Path" fill="#ED5153" points="152.9425 6.03186813 62.0575 6.03186813 73.555 68.543956 22.6375 400.845055 107.5 488.032967 192.3625 400.845055 140.8975 68.543956"></polygon>
                    <g opacity="0" transform="translate(61.225000, 5.483516)" fill="#FFFFFF" id="Path">
                        <polygon points="12.33 63.0604396 79.6725 63.0604396 91.7175 0.548351648 0.8325 0.548351648"></polygon>
                    </g>
                    <path d="M68.08,68.543956 L17.1625,400.296703 C17.1625,401.941758 17.71,403.586813 18.805,405.231868 L103.6675,492.41978 C104.7625,493.516484 105.8575,494.064835 107.5,494.064835 C109.1425,494.064835 110.2375,493.516484 111.3325,492.41978 L196.195,405.231868 C197.29,404.135165 197.8375,402.49011 197.8375,400.296703 L146.92,68.543956 L158.4175,7.12857143 C158.4175,6.03186813 158.4175,9.87032967 157.87,8.77362637 C148.5625,7.67692308 139.255,6.58021978 129.9475,6.03186813 L85.6,6.03186813 C76.2925,6.58021978 66.985,7.67692308 57.6775,8.77362637 C57.13,9.87032967 56.5825,5.48351648 57.13,7.12857143 L68.08,68.543956 Z M146.3725,11.5153846 L135.97,67.4472527 C135.97,67.9956044 135.97,68.543956 135.97,69.0923077 L186.8875,398.651648 L107.5,480.356044 L28.66,399.2 L79.5775,69.6406593 C79.5775,69.0923077 79.5775,68.543956 79.5775,67.9956044 L68.6275,11.5153846 L146.3725,11.5153846 Z" id="Shape" fill="#ED5153"></path>
                    <path d="M68.6275,69.6406593 C69.175,72.3824176 71.365,74.0274725 74.1025,74.0274725 L141.445,74.0274725 C144.1825,74.0274725 146.3725,72.3824176 146.92,69.6406593 L158.4175,7.67692308 C158.4175,6.58021978 158.4175,10.4186813 157.87,9.32197802 C148.5625,8.22527473 139.255,7.12857143 129.9475,6.58021978 L85.6,6.58021978 C76.2925,7.12857143 66.985,8.22527473 57.6775,9.32197802 C57.13,10.4186813 56.5825,6.03186813 57.13,7.67692308 L68.6275,69.6406593 Z M146.3725,11.5153846 L136.5175,62.5120879 L78.4825,62.5120879 L68.6275,11.5153846 L146.3725,11.5153846 Z" id="Shape" fill="#ED5153"></path>
                    <path d="M154.0375,94.3164835 L208.24,15.3538462 C179.77,6.58021978 149.11,1.0967033 117.9025,0 L107.5,6.03186813 L154.0375,94.3164835 Z" id="Path" fill="#FFFFFF"></path>
                    <path d="M102.5725,8.77362637 L149.11,96.5098901 C150.205,98.1549451 151.8475,99.2516484 153.49,99.2516484 C153.49,99.2516484 153.49,99.2516484 154.0375,99.2516484 C155.68,99.2516484 157.3225,98.1549451 158.4175,97.0582418 L214.2625,16.9989011 C210.43,15.9021978 207.145,14.8054945 203.3125,13.7087912 L155.1325,83.3494505 L114.6175,8.22527473 L127.7575,0.548351648 C121.1875,0 114.6175,0 107.5,0 C107.5,0 107.5,0 107.5,0 L104.7625,1.64505495 C102.025,3.29010989 101.4775,6.03186813 102.5725,8.77362637 Z" id="Path" fill="#FFFFFF"></path>
                    <path d="M107.5,6.03186813 L97.0975,0 C65.3425,1.0967033 35.23,6.03186813 6.2125,15.3538462 L60.415,94.3164835 L107.5,6.03186813 Z" id="Path" fill="#FFFFFF"></path>
                    <path d="M60.9625,99.8 C60.9625,99.8 60.9625,99.8 60.9625,99.8 C63.1525,99.8 64.795,98.7032967 65.89,97.0582418 L112.4275,9.32197802 C114.07,6.58021978 112.975,3.29010989 110.2375,2.19340659 L107.5,0 C107.5,0 107.5,0 107.5,0 C100.3825,0 93.8125,0 87.2425,0.548351648 L100.3825,8.22527473 L60.415,83.3494505 L11.6875,13.7087912 C7.855,14.8054945 4.57,15.9021978 0.7375,16.9989011 L56.035,97.0582418 C57.13,98.7032967 59.32,99.8 60.9625,99.8 Z" id="Path" fill="#FFFFFF"></path>
                </g>
            </g>
        </g>
    </g>
</svg>